<?xml version="1.0" standalone="no"?>
<svg viewBox="0 0 200 200" xmlns="http://www.w3.org/2000/svg">
  <path fill="#FF0066" d="M41.9,-61.6C53.4,-57.9,61,-44.6,67.8,-30.7C74.6,-16.8,80.6,-2.2,81.4,13.7C82.2,29.6,77.9,46.7,67.3,57.6C56.7,68.4,39.8,73.1,24,74.2C8.3,75.3,-6.2,73,-21.7,70.2C-37.3,67.4,-53.8,64.2,-61.3,54C-68.8,43.8,-67.2,26.6,-67.5,11C-67.8,-4.7,-69.9,-18.8,-63.5,-27.4C-57.1,-36.1,-42.2,-39.3,-30.2,-42.8C-18.2,-46.3,-9.1,-50.1,3.1,-54.9C15.2,-59.7,30.5,-65.4,41.9,-61.6Z" transform="translate(100 100)" />
</svg>
